<svg width="188" height="188" viewBox="0 0 188 188" fill="none" xmlns="http://www.w3.org/2000/svg">
<path d="M160.12 30.3263L157.676 27.8823C153.085 23.2913 145.64 23.2913 141.047 27.8823L138.577 30.3526C137.295 31.6348 136.952 33.4884 137.522 35.0921L128.101 44.5128C99.8957 72.7184 79.3774 62.463 56.3004 85.5438L27.2976 114.545C23.485 118.357 23.485 124.535 27.2976 128.349L43.4731 144.525L59.6486 160.7C63.4613 164.513 69.6408 164.513 73.4535 160.7L102.454 131.7C125.533 108.621 115.276 88.1043 143.485 59.8987L152.906 50.478C154.508 51.0476 156.363 50.7074 157.646 49.4252L160.12 46.9549C164.709 42.362 164.709 34.9172 160.12 30.3263Z" fill="#60BD91"/>
<path d="M96.0699 78.7776L92.8927 66.067L105.218 61.115L108.083 72.5718L115.428 79.9169L126.881 82.7802L121.927 95.1073L109.221 91.9301L96.0699 78.7776Z" fill="#4E6E91"/>
<path d="M160.12 30.3263L157.676 27.8823C153.085 23.2913 145.64 23.2913 141.047 27.8823L138.577 30.3526C137.295 31.6348 136.952 33.4884 137.522 35.0921L128.101 44.5128C119.908 52.7058 112.366 57.6446 105.218 61.1056L108.085 72.5699L108.132 72.6169C109.894 72.9778 111.552 73.7844 112.885 75.1173C114.218 76.4502 115.024 78.1084 115.385 79.8699L115.432 79.9169L126.893 82.782C130.356 75.6343 135.294 68.0917 143.487 59.8987L152.908 50.478C154.51 51.0476 156.365 50.7074 157.647 49.4252L160.122 46.9549C164.709 42.362 164.709 34.9172 160.12 30.3263Z" fill="#EDDC67"/>
<path d="M137.342 35.2707L152.727 50.6566L152.906 50.478C154.508 51.0476 156.363 50.7074 157.646 49.4252L160.12 46.9549C164.711 42.362 164.711 34.9172 160.12 30.3263L157.676 27.8823C153.085 23.2913 145.64 23.2913 141.047 27.8823L138.577 30.3526C137.295 31.6348 136.952 33.4884 137.522 35.0921L137.342 35.2707Z" fill="#FEF6AA"/>
<path d="M69.0655 149.071C68.8362 149.071 68.6068 148.982 68.432 148.808L38.5494 118.925L62.5344 94.94L93.0506 125.456L69.6991 148.808C69.5243 148.982 69.2949 149.071 69.0655 149.071Z" fill="#FEF6AA"/>
<path d="M112.883 75.1173C109.012 71.2464 102.471 71.5133 98.2713 75.7114C94.0733 79.9094 93.8063 86.4499 97.6773 90.3208C101.548 94.1918 108.089 93.9248 112.289 89.7268C116.487 85.5287 116.754 78.9882 112.883 75.1173Z" fill="#6693C1"/>
<path d="M84.3255 124.943L63.0571 103.674C62.6905 103.308 62.0945 103.308 61.7279 103.674L47.2745 118.128C46.9079 118.495 46.9079 119.09 47.2745 119.457L68.5429 140.726C68.7271 140.908 68.9678 141 69.2084 141C69.4491 141 69.6897 140.908 69.8739 140.726L84.3274 126.272C84.6921 125.905 84.6921 125.31 84.3255 124.943Z" fill="#FEFDEF"/>
<path d="M66.552 165.432C63.5703 165.432 60.5886 164.297 58.3195 162.028L25.9684 129.679C21.4301 125.14 21.4301 117.754 25.9684 113.215L54.9693 84.2146C66.2456 72.9365 76.7905 69.4416 87.9558 65.7398C99.9107 61.7787 112.275 57.6784 126.77 43.1855L135.448 34.5074C135.157 32.5165 135.806 30.4654 137.248 29.0234L139.718 26.555C145.031 21.2384 153.684 21.2346 159.005 26.555L161.449 28.999C166.764 34.3138 166.764 42.9674 161.449 48.2859L158.975 50.7581C157.533 52.1963 155.482 52.843 153.491 52.5535L144.816 61.2297C130.318 75.7264 126.218 88.0893 122.256 100.046C118.555 111.21 115.06 121.754 103.785 133.029L74.7826 162.03C72.5135 164.299 69.5318 165.432 66.552 165.432ZM149.362 26.3181C146.723 26.3181 144.241 27.3465 142.376 29.2114L139.906 31.6818C139.176 32.4112 138.941 33.4753 139.293 34.4623C139.535 35.1466 139.363 35.9099 138.851 36.4212L129.429 45.8438C114.304 60.9684 101.511 65.2078 89.1383 69.3081C78.4092 72.8669 68.2741 76.2246 57.6276 86.8729L28.6286 115.874C27.1397 117.363 26.3181 119.342 26.3181 121.448C26.3181 123.552 27.1397 125.531 28.6286 127.02L60.9797 159.371C62.4686 160.858 64.4464 161.68 66.5501 161.68C68.6557 161.68 70.6354 160.858 72.1243 159.369L101.125 130.37C111.77 119.726 115.129 109.593 118.686 98.8636C122.788 86.4913 127.03 73.6941 142.156 58.5695L151.577 49.147C152.086 48.6356 152.853 48.4551 153.538 48.707C154.521 49.0548 155.587 48.8255 156.316 48.096L158.79 45.6238C162.641 41.7717 162.641 35.5057 158.79 31.6554L156.346 29.2114C154.481 27.3465 152.002 26.3181 149.362 26.3181Z" fill="#1F212B"/>
<path d="M104.438 93.9925C101.697 93.9925 99.0252 92.998 97.0136 90.9845C92.7836 86.7545 93.0506 79.603 97.6077 75.044C102.169 70.485 109.318 70.2237 113.548 74.4518C117.778 78.6818 117.511 85.8333 112.954 90.3923C110.563 92.7837 107.457 93.9925 104.438 93.9925ZM106.122 73.3238C103.582 73.3238 100.962 74.3502 98.9368 76.375C95.111 80.2008 94.8441 86.1585 98.3428 89.6553C101.843 93.1502 107.799 92.8889 111.623 89.0631C115.449 85.2373 115.716 79.2796 112.217 75.7828C110.57 74.1378 108.38 73.3238 106.122 73.3238Z" fill="#1F212B"/>
<path d="M109.449 91.0139L108.993 92.8378L121.702 96.0142L122.158 94.1903L109.449 91.0139Z" fill="#1F212B"/>
<path d="M93.8037 65.8375L91.9799 66.2936L95.1583 79.0039L96.9822 78.5478L93.8037 65.8375Z" fill="#1F212B"/>
<path d="M106.13 60.8843L104.306 61.3406L107.172 72.7977L108.996 72.3414L106.13 60.8843Z" fill="#1F212B"/>
<path d="M115.657 79.0105L115.201 80.8344L126.653 83.6981L127.109 81.8743L115.657 79.0105Z" fill="#1F212B"/>
<path d="M145.7 43.24C145.459 43.24 145.219 43.1479 145.034 42.9655L137.514 35.4455C137.148 35.0789 137.148 34.483 137.514 34.1164C137.881 33.7498 138.477 33.7498 138.844 34.1164L146.364 41.6363C146.73 42.0029 146.73 42.5989 146.364 42.9655C146.181 43.1479 145.941 43.24 145.7 43.24Z" fill="#1F212B"/>
<path d="M153.22 50.76C152.979 50.76 152.739 50.6679 152.554 50.4855L148.794 46.7255C148.428 46.3589 148.428 45.7629 148.794 45.3963C149.161 45.0297 149.757 45.0297 150.124 45.3963L153.884 49.1563C154.25 49.5229 154.25 50.1189 153.884 50.4855C153.701 50.6679 153.461 50.76 153.22 50.76Z" fill="#1F212B"/>
<path d="M69.2254 150.4C68.9847 150.4 68.7441 150.308 68.5599 150.126L37.8745 119.438C37.5079 119.072 37.5079 118.476 37.8745 118.109L61.7091 94.2745C62.0757 93.9079 62.6717 93.9079 63.0383 94.2745L93.7237 124.96C94.0903 125.326 94.0903 125.922 93.7237 126.289L69.8909 150.126C69.7067 150.308 69.466 150.4 69.2254 150.4ZM39.8692 118.775L69.2254 148.131L91.7309 125.625L62.3747 96.2692L39.8692 118.775Z" fill="#1F212B"/>
<path d="M78.02 120.908C77.7794 120.908 77.5387 120.816 77.3545 120.634L76.4145 119.694C76.0479 119.327 76.0479 118.731 76.4145 118.365C76.7811 117.998 77.377 117.998 77.7436 118.365L78.6836 119.305C79.0502 119.671 79.0502 120.267 78.6836 120.634C78.5013 120.816 78.2606 120.908 78.02 120.908Z" fill="#1F212B"/>
<path d="M69.2084 141C68.9678 141 68.7271 140.908 68.5429 140.726L47.2745 119.457C46.9079 119.09 46.9079 118.495 47.2745 118.128L61.7279 103.674C62.0945 103.308 62.6905 103.308 63.0571 103.674L68.6971 109.314C69.0637 109.681 69.0637 110.277 68.6971 110.644C68.3305 111.01 67.7345 111.01 67.3679 110.644L62.3934 105.669L49.271 118.792L69.2084 138.729L77.3563 130.581C77.7229 130.214 78.3189 130.214 78.6855 130.581C79.0521 130.948 79.0521 131.544 78.6855 131.91L69.8721 140.724C69.6878 140.908 69.4472 141 69.2084 141Z" fill="#1F212B"/>
<path d="M73.6734 116.56C73.4328 116.56 73.1922 116.468 73.0079 116.286L71.1279 114.406C70.7613 114.039 70.7613 113.443 71.1279 113.076C71.4945 112.71 72.0905 112.71 72.4571 113.076L74.3371 114.956C74.7037 115.323 74.7037 115.919 74.3371 116.286C74.1528 116.468 73.9122 116.56 73.6734 116.56Z" fill="#1F212B"/>
</svg>
